pedal_clip_forces_x_-0.1_y_-0.04.mot
version=1
nRows=147
nColumns=4
inDegrees=yes
endheader
time	PedalClip_calcn_r_Fx	PedalClip_calcn_r_Fy	PedalClip_calcn_r_Fz
0	6.02857408603875	12.8920073537747	0
0.00115307	5.82573956689132	13.3497710418644	0
0.00547001	5.62303521155626	13.8026246500486	0
0.00978694	5.42046263219688	14.2505704725865	0
0.01481375	5.21802347926029	14.6936109181582	0
0.01760827	5.01571944202101	15.1317485186075	0
0.02148016	4.81355224908409	15.5649859386386	0
0.02484365	4.61152366884065	15.9933264697788	0
0.02764273	4.40963550986897	16.4167751779407	0
0.03079765	4.20788962127347	16.8353365745736	0
0.03253611	4.00628789295349	17.2490150779882	0
0.03547023	3.80483242940445	17.6578153295818	0
0.03710261	3.60352618482295	18.061742208154	0
0.03962806	3.40237269351173	18.460800845283	0
0.04121515	3.20137500801541	18.8549966419028	0
0.04355119	3.00053573386518	19.2443352862335	0
0.04588722	2.79985730770723	19.6288227732497	0
0.04679444	2.59934218698543	20.0084654258913	0
0.04770167	2.3989930027165	20.3832699182612	0
0.05043647	2.19881207017816	20.7532433010836	0
0.0509247	1.99880137676862	21.118393029746	0
0.05245605	1.79896240488252	21.4787269952963	0
0.05350796	1.59929625405138	21.8342535588301	0
0.05486138	1.39980354976032	22.1849815897701	0
0.055876	1.20048456129296	22.5309205086377	0
0.05717223	1.00133908469379	22.8720803350134	0
0.05812701	0.802366521174633	23.2084717415295	0
0.0593	0.603565719622206	23.5401061148933	0
0.06043176	0.404935077433291	23.8669956251685	0
0.06124149	0.206472392075673	24.1891533048106	0
0.06302187	0.00817495354917478	24.5065931393285	0
0.06480225	-0.189960614580949	24.8193301719356	0
0.0650274	-0.387938189863011	25.1273806252332	0
0.06548803	-0.585761994898458	25.4307620439067	0
0.06677113	-0.783436269547118	25.7294934637516	0
0.06725379	-0.980965339413675	26.0235956142589	0
0.06831725	-1.17835341227588	26.3130911647944	0
0.06907642	-1.37560444018234	26.5980050285534	0
0.06983559	-1.57272198930256	26.8783647446802	0
0.07027259	-1.76970940767683	27.1542009682495	0
0.07101838	-1.9665696083812	27.4255481116397	0
0.07175004	-2.16330469268751	27.6924452006312	0
0.07248169	-2.35991562659989	27.9549364552876	0
0.072915	-2.55640251842245	28.2130709479768	0
0.07361352	-2.75276469583713	28.4669061948206	0
0.07430158	-2.94900004067701	28.7165114811561	0
0.07498963	-3.14510402788089	28.9619703227956	0
0.07541251	-3.34106914539668	29.2033763455142	0
0.07595447	-3.53688360537692	29.4407956319325	0
0.07667826	-3.73252687227627	29.6740935696254	0
0.07740206	-3.92766022096851	29.8934050457784	0
0.07780065	-4.12256763739049	30.1068533794376	0
0.07846383	-4.3172294881921	30.3127796843734	0
0.07906779	-4.51162227700117	30.5096209483596	0
0.07967175	-4.70571930691529	30.6978357209328	0
0.08004981	-4.89949619081011	30.8809249624478	0
0.08044233	-5.09292800243156	31.0627241289383	0
0.08129055	-5.28599029512703	31.2440438725863	0
0.08213877	-5.47866695919987	31.4239193983693	0
0.08320077	-5.6709599646945	31.6021582549706	0
0.08335958	-5.86289877679833	31.7788994157604	0
0.0836825	-6.05453933340031	31.954262525637	0
0.0844531	-6.24593733976127	32.1283381150714	0
0.0852237	-6.43713988848859	32.3011190468629	0
0.08530076	-6.62819209564807	32.4723852445595	0
0.08537782	-6.8191400268523	32.6419630612222	0
0.08576312	-7.01002362528019	32.8098616113275	0
0.08673041	-7.20087119472476	32.9762359221714	0
0.08749074	-7.39168548517937	33.1413069320945	0
0.08807832	-7.58246426145508	33.3052540441014	0
0.08813708	-7.77319894414928	33.4680795483679	0
0.08833114	-7.96387278710993	33.6297186471972	0
0.08870603	-8.15445673785304	33.7901761280898	0
0.08885779	-8.34491953630245	33.9496040118263	0
0.0893274	-8.53522543549051	34.1083261310602	0
0.08981036	-8.7253453172173	34.2666732716318	0
0.09029331	-8.91525756347828	34.4248618395474	0
0.09105119	-9.10493103628869	34.58296599472	0
0.09214293	-9.29431614285979	34.7410164742676	0
0.09243152	-9.48334610340033	34.89905545988	0
0.09288971	-9.67194756691519	35.0571716496862	0
0.09334789	-9.86006699853317	35.2154567805489	0
0.09394198	-10.0476808246818	35.3739851481364	0
0.09408671	-10.2347901346591	35.5328237563171	0
0.09457493	-10.4214011481691	35.6920525686801	0
0.09510638	-10.6075087065084	35.8517530646786	0
0.09563783	-10.7931146658967	36.0120362172189	0
0.0963831	-10.9782205158417	36.1730098786071	0
0.09679113	-11.1628224549598	36.3347172139577	0
0.09720697	-11.3469369786146	36.4971373542889	0
0.09757262	-11.5305898325183	36.6602087113076	0
0.09770623	-11.7138032928189	36.8237819002457	0
0.09805579	-11.8965873335103	36.9876316874835	0
0.09843113	-12.0789583017537	37.1517247629061	0
0.0986617	-12.2609470967002	37.3161142706599	0
0.09921038	-12.4425855285359	37.4808246130114	0
0.09935782	-12.6238870255764	37.6458579356943	0
0.09962063	-12.8048600850071	37.8112091139173	0
0.0998925	-12.9855242967553	37.9769089675106	0
0.10002844	-13.165900359382	38.1429996245385	0
0.10035942	-13.3460021443329	38.3095128196016	0
0.10077374	-13.5258325694851	38.4764430539354	0
0.10112966	-13.7054000515678	38.643823530083	0
0.10122287	-13.8847110881017	38.8117389894674	0
0.10136144	-14.063746227	38.9802678419727	0
0.10192163	-14.2424623571802	39.1494334520756	0
0.10216581	-14.4207672798604	39.3192532031078	0
0.10245853	-14.5983971795238	39.489803866652	0
0.1028524	-14.7749777515198	39.6612231624037	0
0.10318805	-14.9502221955221	39.8336445698363	0
0.10324583	-15.1240611439254	40.0071625965254	0
0.10337878	-15.2966720171282	40.1818208800109	0
0.10363153	-15.4683979056043	40.3576253743342	0
0.10381211	-15.6395770563698	40.5346019453776	0
0.10402341	-15.810565232073	40.7127833013165	0
0.10438425	-15.9817379642101	40.8921696377449	0
0.10475495	-16.1534743100563	41.0726968420705	0
0.10490234	-16.3260450753134	41.2542692457057	0
0.10513029	-16.4995733699867	41.4367936571678	0
0.10531485	-16.6740679985003	41.6202213763396	0
0.10547456	-16.8494728563112	41.8045475799711	0
0.10574614	-17.0256980000011	41.9897585424751	0
0.10612145	-17.2026177325294	42.1757774722555	0
0.10626067	-17.3800864329194	42.3624813379671	0
0.10648424	-17.5579584944958	42.5497271577459	0
0.10670601	-17.7361171007538	42.7373708404258	0
0.1068169	-17.9144915487656	42.9252735477811	0
0.10709505	-18.0930345721593	43.1133313094968	0
0.10749797	-18.2717158475053	43.3014904204915	0
0.10759445	-18.4505177110761	43.4897177907527	0
0.10792277	-18.6294286534926	43.6779753611313	0
0.10816914	-18.8084369351143	43.8662225760817	0
0.10831242	-18.9875294901781	44.0544335891623	0
0.10886176	-19.1667165629718	44.242593893167	0
0.10916899	-19.3460323728784	44.4307056431639	0
0.10947622	-19.5255188588444	44.6187765812454	0
0.1097872	-19.7052217684416	44.8068324730691	0
0.11008438	-19.8851860254032	44.9949222967571	0
0.1104064	-20.0654466823319	45.1830599382602	0
0.11049244	-20.2460265471876	45.371263107824	0
0.1106286	-20.4269297969754	45.5595490774034	0
0.11118178	-20.6081993068829	45.7479279121796	0
0.11145838	-20.7898930335741	45.9364066376993	0
0.11182255	-20.9720582449354	46.1249877571993	0
0.11192161	-21.1547776174009	46.3136822356265	0
0.11222908	-21.3381139108493	46.5025026128864	0
0.11253194	-21.5221415513122	46.6914758703731	0
